<mxfile host="app.diagrams.net" modified="2021-05-12T04:48:18.316Z" agent="5.0 (X11)" etag="ZU42ENnMyiPirli1P21I" version="14.6.12" type="github">
  <diagram id="vUN9BYvMoHicTQgCzk0O" name="Page-1">
    <mxGraphModel dx="940" dy="566" grid="1" gridSize="10" guides="1" tooltips="1" connect="1" arrows="1" fold="1" page="1" pageScale="1" pageWidth="827" pageHeight="1169" math="0" shadow="0">
      <root>
        <mxCell id="0" />
        <mxCell id="1" parent="0" />
        <mxCell id="m3BPWXe_hGs6VmrIDzv6-9" value="&lt;div&gt;User interaction&lt;/div&gt;" style="text;html=1;strokeColor=#b85450;fillColor=#f8cecc;align=center;verticalAlign=middle;whiteSpace=wrap;rounded=0;" parent="1" vertex="1">
          <mxGeometry x="10" y="10" width="100" height="20" as="geometry" />
        </mxCell>
        <mxCell id="m3BPWXe_hGs6VmrIDzv6-10" value="javascript" style="text;html=1;strokeColor=#6c8ebf;fillColor=#dae8fc;align=center;verticalAlign=middle;whiteSpace=wrap;rounded=0;" parent="1" vertex="1">
          <mxGeometry x="10" y="50" width="100" height="20" as="geometry" />
        </mxCell>
        <mxCell id="m3BPWXe_hGs6VmrIDzv6-14" style="edgeStyle=orthogonalEdgeStyle;rounded=0;orthogonalLoop=1;jettySize=auto;html=1;exitX=0.5;exitY=1;exitDx=0;exitDy=0;" parent="1" source="m3BPWXe_hGs6VmrIDzv6-12" edge="1">
          <mxGeometry relative="1" as="geometry">
            <mxPoint x="60" y="90" as="targetPoint" />
          </mxGeometry>
        </mxCell>
        <mxCell id="m3BPWXe_hGs6VmrIDzv6-12" value="Python" style="text;html=1;strokeColor=#82b366;fillColor=#d5e8d4;align=center;verticalAlign=middle;whiteSpace=wrap;rounded=0;" parent="1" vertex="1">
          <mxGeometry x="10" y="90" width="100" height="20" as="geometry" />
        </mxCell>
        <mxCell id="m3BPWXe_hGs6VmrIDzv6-16" value="ajax_update.js" style="swimlane;fillColor=#dae8fc;strokeColor=#6c8ebf;" parent="1" vertex="1">
          <mxGeometry x="500" y="300" width="200" height="200" as="geometry" />
        </mxCell>
        <mxCell id="m3BPWXe_hGs6VmrIDzv6-2" value="ajax_update_status()" style="rounded=0;whiteSpace=wrap;html=1;fillColor=#dae8fc;strokeColor=#6c8ebf;" parent="m3BPWXe_hGs6VmrIDzv6-16" vertex="1">
          <mxGeometry x="40" y="60" width="120" height="100" as="geometry" />
        </mxCell>
        <mxCell id="m3BPWXe_hGs6VmrIDzv6-19" style="edgeStyle=orthogonalEdgeStyle;rounded=0;orthogonalLoop=1;jettySize=auto;html=1;exitX=0.5;exitY=1;exitDx=0;exitDy=0;entryX=0.525;entryY=1.08;entryDx=0;entryDy=0;entryPerimeter=0;" parent="m3BPWXe_hGs6VmrIDzv6-16" source="m3BPWXe_hGs6VmrIDzv6-2" target="m3BPWXe_hGs6VmrIDzv6-2" edge="1">
          <mxGeometry relative="1" as="geometry" />
        </mxCell>
        <mxCell id="m3BPWXe_hGs6VmrIDzv6-18" value="helppage.js" style="swimlane;fillColor=#dae8fc;strokeColor=#6c8ebf;" parent="1" vertex="1">
          <mxGeometry x="577" y="10" width="250" height="250" as="geometry" />
        </mxCell>
        <mxCell id="m3BPWXe_hGs6VmrIDzv6-22" style="edgeStyle=orthogonalEdgeStyle;rounded=0;orthogonalLoop=1;jettySize=auto;html=1;entryX=0.5;entryY=0;entryDx=0;entryDy=0;" parent="m3BPWXe_hGs6VmrIDzv6-18" source="m3BPWXe_hGs6VmrIDzv6-1" target="m3BPWXe_hGs6VmrIDzv6-5" edge="1">
          <mxGeometry relative="1" as="geometry" />
        </mxCell>
        <mxCell id="m3BPWXe_hGs6VmrIDzv6-1" value="Pressing &#39;a&#39;" style="rounded=0;whiteSpace=wrap;html=1;fillColor=#f8cecc;strokeColor=#b85450;" parent="m3BPWXe_hGs6VmrIDzv6-18" vertex="1">
          <mxGeometry x="73" y="40" width="120" height="50" as="geometry" />
        </mxCell>
        <mxCell id="m3BPWXe_hGs6VmrIDzv6-5" value="_move_next_word()" style="rounded=0;whiteSpace=wrap;html=1;fillColor=#dae8fc;strokeColor=#6c8ebf;" parent="m3BPWXe_hGs6VmrIDzv6-18" vertex="1">
          <mxGeometry x="113" y="140" width="120" height="50" as="geometry" />
        </mxCell>
        <mxCell id="m3BPWXe_hGs6VmrIDzv6-21" style="edgeStyle=orthogonalEdgeStyle;rounded=0;orthogonalLoop=1;jettySize=auto;html=1;entryX=1;entryY=0.5;entryDx=0;entryDy=0;" parent="1" source="m3BPWXe_hGs6VmrIDzv6-2" target="m3BPWXe_hGs6VmrIDzv6-15" edge="1">
          <mxGeometry relative="1" as="geometry" />
        </mxCell>
        <mxCell id="bOu5gGOmbY3mw_cRshdL-2" value="&lt;div&gt;op: update_status&lt;br&gt;status: status&lt;/div&gt;&lt;div&gt;wo_id: wo_id&lt;br&gt;&lt;/div&gt;" style="edgeLabel;html=1;align=center;verticalAlign=middle;resizable=0;points=[];" vertex="1" connectable="0" parent="m3BPWXe_hGs6VmrIDzv6-21">
          <mxGeometry x="0.7445" y="-2" relative="1" as="geometry">
            <mxPoint x="19" y="2" as="offset" />
          </mxGeometry>
        </mxCell>
        <mxCell id="m3BPWXe_hGs6VmrIDzv6-25" style="edgeStyle=orthogonalEdgeStyle;rounded=0;orthogonalLoop=1;jettySize=auto;html=1;entryX=0.5;entryY=0;entryDx=0;entryDy=0;" parent="1" source="m3BPWXe_hGs6VmrIDzv6-1" target="m3BPWXe_hGs6VmrIDzv6-2" edge="1">
          <mxGeometry relative="1" as="geometry" />
        </mxCell>
        <mxCell id="m3BPWXe_hGs6VmrIDzv6-26" value="termform.py" style="swimlane;fillColor=#d5e8d4;strokeColor=#82b366;" parent="1" vertex="1">
          <mxGeometry x="130" y="300" width="290" height="200" as="geometry" />
        </mxCell>
        <mxCell id="m3BPWXe_hGs6VmrIDzv6-15" value="&lt;div&gt;termform()&lt;/div&gt;" style="rounded=0;whiteSpace=wrap;html=1;fillColor=#d5e8d4;strokeColor=#82b366;" parent="m3BPWXe_hGs6VmrIDzv6-26" vertex="1">
          <mxGeometry x="20" y="60" width="100" height="41.67" as="geometry" />
        </mxCell>
      </root>
    </mxGraphModel>
  </diagram>
</mxfile>
